<svg width="128" height="128" viewBox="0 0 128 128" fill="none" xmlns="http://www.w3.org/2000/svg">
<path d="M82.8545 122.999H31.6279C29.1818 122.999 26.7596 122.517 24.4997 121.581C22.2397 120.645 20.1862 119.274 18.4565 117.544C16.7267 115.815 15.3546 113.761 14.4183 111.501C13.4821 109.242 13.0002 106.819 13 104.373V34.5189C13.0067 28.3454 15.4621 22.4268 19.8274 18.0615C24.1927 13.6962 30.1114 11.2408 36.2848 11.2341H81.8808C80.9568 12.5801 80.3667 14.127 80.1597 15.7465C79.9526 17.366 80.1344 19.0116 80.69 20.5468H40.9406V85.7455H96.8205V37.4868C98.2389 38.2704 99.8226 38.7074 101.442 38.7621C103.062 38.8168 104.671 38.4877 106.139 37.8017V99.7152C106.133 105.889 103.677 111.807 99.3119 116.173C94.9466 120.538 89.0279 122.992 82.8545 122.999ZM31.6279 95.0582C30.3959 95.0442 29.1734 95.2747 28.0311 95.7365C26.8889 96.1982 25.8496 96.882 24.9735 97.7482C24.0974 98.6144 23.4018 99.6459 22.9271 100.783C22.4524 101.92 22.2079 103.14 22.2079 104.372C22.2079 105.604 22.4524 106.823 22.9271 107.96C23.4018 109.097 24.0974 110.129 24.9735 110.995C25.8496 111.861 26.8889 112.545 28.0311 113.007C29.1734 113.468 30.3959 113.699 31.6279 113.685H82.8545C86.5574 113.679 90.1072 112.206 92.7252 109.587C95.3433 106.968 96.816 103.418 96.8205 99.7152V95.0582H31.6279ZM31.6279 21.3515C28.9059 22.3173 26.5494 24.1017 24.8816 26.4598C23.2138 28.8179 22.3165 31.6343 22.3127 34.5225V88.2465C25.1394 86.6091 28.3479 85.7464 31.6146 85.7455H31.6267V21.3527L31.6279 21.3515Z" fill="#E0E9FB"/>
<path opacity="0.8" d="M60.7764 54.3266C60.0781 54.3259 59.4 54.0923 58.8495 53.6626C58.299 53.233 57.9076 52.6319 57.7373 51.9547L56.6189 47.4739L52.1284 46.2674C51.4556 46.0838 50.8631 45.6812 50.4446 45.1233C50.0262 44.5653 49.8056 43.8838 49.8178 43.1864C49.8299 42.4891 50.0742 41.8157 50.5119 41.2727C50.9496 40.7297 51.5557 40.348 52.2346 40.188L56.6249 39.171L57.7409 34.7649C57.913 34.0894 58.3053 33.4904 58.8558 33.0627C59.4062 32.6349 60.0835 32.4026 60.7806 32.4026C61.4777 32.4026 62.155 32.6349 62.7055 33.0627C63.2559 33.4904 63.6482 34.0894 63.8203 34.7649L64.9291 39.2084L69.3725 40.3207C70.048 40.4929 70.647 40.8851 71.0748 41.4356C71.5025 41.986 71.7348 42.6633 71.7348 43.3604C71.7348 44.0576 71.5025 44.7348 71.0748 45.2853C70.647 45.8357 70.048 46.228 69.3725 46.4001L64.9291 47.5125L63.8203 51.9559C63.6496 52.6337 63.2574 53.2351 62.7059 53.6646C62.1545 54.0941 61.4754 54.3271 60.7764 54.3266Z" fill="#E0E9FB"/>
<path d="M101.708 30.5059C101.119 30.5065 100.543 30.3303 100.054 30.0002C99.5658 29.6701 99.1876 29.2012 98.9683 28.654L96.4794 22.4238L90.2408 19.7961C89.705 19.56 89.251 19.1707 88.9358 18.6773C88.6207 18.1839 88.4584 17.6083 88.4695 17.0229C88.4806 16.4375 88.6645 15.8685 88.9982 15.3873C89.3318 14.9062 89.8002 14.5344 90.3445 14.3187L96.4975 11.9866L98.9659 5.81797C99.1931 5.27911 99.5741 4.81921 100.061 4.49585C100.549 4.17248 101.12 4 101.705 4C102.29 4 102.862 4.17248 103.349 4.49585C103.836 4.81921 104.217 5.27911 104.445 5.81797L106.925 12.0108L113.118 14.4913C113.658 14.7172 114.119 15.0977 114.444 15.5851C114.768 16.0725 114.941 16.645 114.941 17.2305C114.941 17.8161 114.768 18.3886 114.444 18.876C114.119 19.3634 113.658 19.7439 113.118 19.9698L106.927 22.4503L104.448 28.6419C104.231 29.1914 103.853 29.6629 103.365 29.9952C102.876 30.3276 102.299 30.5055 101.708 30.5059Z" fill="#E0E9FB"/>
<path opacity="0.8" d="M80.245 79.5568C79.7803 79.557 79.3288 79.4018 78.9624 79.1158C78.596 78.8299 78.3358 78.4297 78.223 77.9788L77.4702 74.9988L74.4842 74.1965C74.0363 74.0748 73.6419 73.8071 73.3634 73.4357C73.085 73.0644 72.9386 72.6107 72.9473 72.1467C72.956 71.6826 73.1194 71.2348 73.4116 70.8742C73.7038 70.5136 74.108 70.2608 74.5602 70.1561L77.4774 69.4792L78.2194 66.5487C78.332 66.0979 78.5922 65.6976 78.9584 65.4116C79.3247 65.1255 79.7761 64.9702 80.2408 64.9702C80.7055 64.9702 81.1569 65.1255 81.5232 65.4116C81.8895 65.6976 82.1496 66.0979 82.2623 66.5487L83.0006 69.5034L85.9553 70.2429C86.4061 70.3556 86.8064 70.6157 87.0924 70.982C87.3784 71.3483 87.5338 71.7996 87.5338 72.2644C87.5338 72.7291 87.3784 73.1805 87.0924 73.5467C86.8064 73.913 86.4061 74.1731 85.9553 74.2858L83.0006 75.0254L82.2623 77.98C82.1495 78.4298 81.8898 78.8292 81.5244 79.1148C81.1591 79.4004 80.7088 79.556 80.245 79.5568Z" fill="#E0E9FB"/>
</svg>
